<svg width="25" height="79" viewBox="0 0 25 79" fill="none" xmlns="http://www.w3.org/2000/svg">
<rect y="79" width="79" height="25" transform="rotate(-90 0 79)" fill="url(#paint0_linear)"/>
<path d="M17 55.3809V57.2676L15.0488 58.0176V61.4512L17 62.1602V64L8.41016 60.6543V58.8203L17 55.3809ZM13.6016 58.5742L10.4141 59.7578L13.6016 60.918V58.5742ZM8.41016 53.2258V51.4914H12.0664C12.0273 51.1047 11.9277 50.843 11.7676 50.7063C11.6074 50.5695 11.1621 50.3586 10.4316 50.0734C9.50195 49.7141 8.92383 49.3527 8.69727 48.9895C8.4707 48.6301 8.35742 48.05 8.35742 47.2492C8.35742 47.2102 8.35547 47.1262 8.35156 46.9973H9.63477L9.62891 47.2434C9.62891 47.5988 9.67383 47.8586 9.76367 48.0227C9.84961 48.1867 9.98242 48.3195 10.1621 48.4211C10.3418 48.5227 10.7109 48.673 11.2695 48.8723C11.5664 48.9777 11.8145 49.093 12.0137 49.218C12.2129 49.3391 12.4004 49.5559 12.5762 49.8684C12.6855 49.4816 12.9062 49.1633 13.2383 48.9133C13.5703 48.6594 14.0391 48.382 14.6445 48.0813L17 46.9094V48.9484L14.7793 49.9738C14.748 49.9895 14.6875 50.0227 14.5977 50.0734C14.5664 50.093 14.4316 50.1652 14.1934 50.2902C13.7715 50.5129 13.5078 50.6965 13.4023 50.841C13.2969 50.9816 13.2422 51.1984 13.2383 51.4914H17V53.2258H8.41016ZM8.41016 44.7016V42.9672H15.5586V39.6039H8.41016V37.8695H15.5586V37.1547H18.875V38.5961H17V44.7016H8.41016ZM8.41016 34.7418V33.1187H14.1289L8.41016 29.6383V27.9098H17V29.5328H11.3926L17 33.0074V34.7418H8.41016ZM17 19.8016H13.4141V20.1531C13.4141 20.7 13.4961 21.0867 13.6602 21.3133C13.8242 21.5359 14.3145 21.9188 15.1309 22.4617L17 23.7156V25.7898L15.3242 24.741C14.6602 24.327 14.1953 23.9969 13.9297 23.7508C13.6602 23.5047 13.4199 23.1961 13.209 22.825C13.084 23.6258 12.8066 24.2039 12.377 24.5594C11.9434 24.9148 11.4258 25.0926 10.8242 25.0926C10.3008 25.0926 9.83789 24.9617 9.43555 24.7C9.0293 24.4344 8.75781 24.0867 8.62109 23.657C8.48047 23.2234 8.41016 22.577 8.41016 21.7176V18.0672H17V19.8016ZM9.86328 19.8016V21.1551C9.86328 21.8426 9.87891 22.2957 9.91016 22.5145C9.94141 22.7293 10.0469 22.9148 10.2266 23.0711C10.4063 23.2273 10.6406 23.3055 10.9297 23.3055C11.2305 23.3055 11.4707 23.2313 11.6504 23.0828C11.8262 22.9305 11.9355 22.7391 11.9785 22.5086C12.0215 22.2742 12.043 21.7996 12.043 21.0848V19.8016H9.86328Z" fill="white"/>
<defs>
<linearGradient id="paint0_linear" x1="-4.75771e-07" y1="94.5298" x2="78.7265" y2="99.3042" gradientUnits="userSpaceOnUse">
<stop stop-color="#9710E9"/>
<stop offset="1" stop-color="#FD8D43"/>
</linearGradient>
</defs>
</svg>
